<?xml version="1.0" encoding="utf-8"?>
<!-- Generator: Adobe Illustrator 16.0.0, SVG Export Plug-In . SVG Version: 6.00 Build 0)  -->
<!DOCTYPE svg PUBLIC "-//W3C//DTD SVG 1.1//EN" "http://www.w3.org/Graphics/SVG/1.1/DTD/svg11.dtd">
<svg version="1.1" id="Layer_1" xmlns="http://www.w3.org/2000/svg" xmlns:xlink="http://www.w3.org/1999/xlink" x="0px" y="0px"
	 width="1280px" height="444px" viewBox="0 0 1280 444" enable-background="new 0 0 1280 444" xml:space="preserve">
<pattern  width="144.13" height="138.362" patternUnits="userSpaceOnUse" id="Alyssa" viewBox="99.963 -216.829 144.13 138.362" overflow="visible">
	<g>
		<polygon fill="none" points="99.963,-216.829 244.093,-216.829 244.093,-78.466 99.963,-78.466 		"/>
		<g>
			<path fill="#ffffff" d="M311.037-58.307c-11.76-1.384-19.369,0.346-22.654,3.113c-3.02,2.543-4.955,5.405-2.248,11.932
				c2.939,7.091,1.533,14.732-5.535,15.91c-6.225,1.037-10.895-4.842-11.24-12.278c-0.24-5.183-1.902-8.301-5.533-7.608
				c-3.633,0.691-4.629,5.9-3.633,11.759c1.385,8.128,5.535,11.76,6.227,20.233c0.494,6.055-2.939,13.662-12.451,15.045
				c-9.301,1.354-15.91-4.322-16.602-10.549c-0.732-6.588,3.631-10.895,3.111-17.639c-0.518-6.745-4.012-10.172-5.879-17.294
				c-2.768-10.549,1.211-19.022,7.781-22.654c14.746-8.148,22.832,3.642,35.971,1.556c10.896-1.729,23.348-18.157,33.031-19.541
				c8.227-1.175,13.834,4.669,15.045,14.008S321.687-57.053,311.037-58.307z M268.841-57.789c0-2.292-1.859-4.15-4.15-4.15
				c-2.293,0-4.15,1.858-4.15,4.15s1.857,4.15,4.15,4.15C266.982-53.638,268.841-55.497,268.841-57.789z M318.3-73.179
				c0-0.955-0.775-1.729-1.73-1.729s-1.729,0.774-1.729,1.729s0.773,1.729,1.729,1.729S318.3-72.224,318.3-73.179z"/>
		</g>
		<g>
			<path fill="#ffffff" d="M148.795-77.495c0,7.166,4.588,13.813-1,16.333c-8.5,3.833-28-14.333-28-36.167c0-12,8.667-19,17.833-19
				c12.334,0,18,8.167,18,17.5C155.629-89.497,148.795-85.689,148.795-77.495z M143.387-82.864c0-1.146-0.93-2.075-2.074-2.075
				c-1.146,0-2.076,0.929-2.076,2.075c0,1.146,0.93,2.075,2.076,2.075C142.458-80.789,143.387-81.718,143.387-82.864z"/>
			<path fill="#ffffff" d="M223.495-54c-7.871,2.737-19.439-15.297-17.67-27.019c1.24-8.228,7.123-13.189,13.088-14.217
				c7.525-1.297,12.898,2.601,13.299,7.243c0.547,6.309-3.633,7.518-4.223,14.958C227.426-65.9,231.68-56.849,223.495-54z
				 M219.706-81.508c0-1.434-1.162-2.595-2.594-2.595c-1.434,0-2.594,1.161-2.594,2.595c0,1.433,1.16,2.594,2.594,2.594
				C218.543-78.915,219.706-80.076,219.706-81.508z"/>
			<path fill="#ffffff" d="M119.351-76.465c0,1.433-1.162,2.594-2.594,2.594c-1.434,0-2.594-1.161-2.594-2.594
				s1.16-2.594,2.594-2.594C118.188-79.059,119.351-77.898,119.351-76.465z"/>
			<path fill="#ffffff" d="M184.573-84.189c0.74,8.101,12.672,7.017,17.904,14.214c10.52,14.475-1.219,46.365-21.631,46.365
				c-11.74,0-24.217-9.719-24.217-29.219c0-15.834,10.166-21.5,8.25-42.166c-1.006-10.834-12.5-20.343-12.5-34.75
				c0-5.922,3.586-13.447,11.553-13.447c7.055,0,10.822,5.953,10.822,12.9c0,6.798-5.381,15.74,1.375,19.047
				c5.242,2.565,13.211-4.77,19.5-6.75c5.191-1.636,12.389,0.225,14.75,8.5c2.531,8.876-3.252,14.745-11.592,16.693
				C192.469-91.325,183.985-90.63,184.573-84.189z M168.588-114.748c0-1.815-1.471-3.287-3.285-3.287s-3.287,1.472-3.287,3.287
				c0,1.814,1.473,3.285,3.287,3.285S168.588-112.933,168.588-114.748z M194.573-105.052c1.285,0,2.328-1.043,2.328-2.33
				c0-1.286-1.043-2.328-2.328-2.328c-1.287,0-2.33,1.042-2.33,2.328C192.243-106.095,193.286-105.052,194.573-105.052z
				 M174.588-45.38c0-1.815-1.471-3.287-3.287-3.287c-1.814,0-3.285,1.472-3.285,3.287c0,1.814,1.471,3.285,3.285,3.285
				C173.118-42.095,174.588-43.566,174.588-45.38z"/>
			<path fill="#ffffff" d="M166.907-58.307c-11.76-1.384-19.369,0.346-22.654,3.113c-3.02,2.543-4.955,5.405-2.248,11.932
				c2.939,7.091,1.533,14.732-5.535,15.91c-6.225,1.037-10.895-4.842-11.24-12.278c-0.24-5.183-1.902-8.301-5.533-7.608
				c-3.633,0.691-4.629,5.9-3.633,11.759c1.385,8.128,5.535,11.76,6.227,20.233c0.494,6.055-2.939,13.662-12.451,15.045
				c-9.301,1.354-15.91-4.322-16.602-10.549c-0.732-6.588,3.631-10.895,3.111-17.639c-0.518-6.745-4.012-10.172-5.879-17.294
				c-2.768-10.549,1.211-19.022,7.781-22.654c14.746-8.148,22.832,3.642,35.97,1.556c10.896-1.729,23.348-18.157,33.031-19.541
				c8.227-1.175,13.834,4.669,15.045,14.008S177.557-57.053,166.907-58.307z M124.711-57.789c0-2.292-1.859-4.15-4.15-4.15
				c-2.293,0-4.15,1.858-4.15,4.15s1.857,4.15,4.15,4.15C122.853-53.638,124.711-55.497,124.711-57.789z M174.17-73.179
				c0-0.955-0.775-1.729-1.73-1.729s-1.729,0.774-1.729,1.729s0.773,1.729,1.729,1.729S174.17-72.224,174.17-73.179z"/>
		</g>
		<g>
			<path fill="#ffffff" d="M290.285-104.841c0,6.227-4.15,10.721-8.646,11.586s-8.318-1.281-12.971,1.211
				c-4.842,2.594-7.09,11.068-16.775,11.068c-7.955,0-15.217-7.955-15.217-18.85c0-20.234,13.143-29.227,25.594-29.227
				C278.871-129.052,290.285-116.427,290.285-104.841z M270.57-119.195c0-2.1-1.703-3.803-3.805-3.803s-3.805,1.703-3.805,3.803
				c0,2.102,1.703,3.805,3.805,3.805S270.57-117.093,270.57-119.195z"/>
			<path fill="#ffffff" d="M311.037-196.669c-11.76-1.384-19.369,0.346-22.654,3.113c-3.02,2.543-4.955,5.405-2.248,11.932
				c2.939,7.091,1.533,14.732-5.535,15.91c-6.225,1.037-10.895-4.842-11.24-12.278c-0.24-5.183-1.902-8.301-5.533-7.608
				c-3.633,0.691-4.629,5.9-3.633,11.759c1.385,8.128,5.535,11.76,6.227,20.233c0.494,6.055-2.939,13.662-12.451,15.045
				c-9.301,1.354-15.91-4.322-16.602-10.549c-0.732-6.588,3.631-10.895,3.111-17.639c-0.518-6.745-4.012-10.172-5.879-17.294
				c-2.768-10.549,1.211-19.022,7.781-22.654c14.746-8.148,22.832,3.642,35.971,1.556c10.896-1.729,23.348-18.157,33.031-19.541
				c8.227-1.175,13.834,4.669,15.045,14.008S321.687-195.416,311.037-196.669z M268.841-196.151c0-2.292-1.859-4.15-4.15-4.15
				c-2.293,0-4.15,1.858-4.15,4.15s1.857,4.15,4.15,4.15C266.982-192,268.841-193.859,268.841-196.151z M318.3-211.542
				c0-0.955-0.775-1.729-1.73-1.729s-1.729,0.774-1.729,1.729s0.773,1.729,1.729,1.729S318.3-210.586,318.3-211.542z"/>
		</g>
		<g>
			<path fill="#ffffff" d="M131.795-133.191c-13.957,1.988-21.166-13.332-17.666-20.332c3.666-7.334,12.119-4.168,19.5-4.168
				c9.666,0,16.367-7.568,20.416-2.25C158.295-154.357,149.036-135.646,131.795-133.191z M132.319-150.669
				c0-1.24-1.006-2.248-2.248-2.248c-1.24,0-2.248,1.008-2.248,2.248c0,1.242,1.008,2.248,2.248,2.248
				C131.313-148.421,132.319-149.427,132.319-150.669z"/>
			<path fill="#ffffff" d="M148.795-215.857c0,7.166,4.588,13.813-1,16.333c-8.5,3.833-28-14.333-28-36.167c0-12,8.667-19,17.833-19
				c12.334,0,18,8.167,18,17.5C155.629-227.859,148.795-224.051,148.795-215.857z M143.387-221.226c0-1.146-0.93-2.075-2.074-2.075
				c-1.146,0-2.076,0.929-2.076,2.075c0,1.146,0.93,2.075,2.076,2.075C142.458-219.151,143.387-220.081,143.387-221.226z"/>
			<path fill="#ffffff" d="M146.155-104.841c0,6.227-4.15,10.721-8.646,11.586s-8.318-1.281-12.971,1.211
				c-4.841,2.594-7.089,11.068-16.775,11.068c-7.955,0-15.217-7.955-15.217-18.85c0-20.234,13.143-29.227,25.594-29.227
				C134.741-129.052,146.155-116.427,146.155-104.841z M126.44-119.195c0-2.1-1.703-3.803-3.804-3.803
				c-2.102,0-3.805,1.703-3.805,3.803c0,2.102,1.703,3.805,3.805,3.805C124.737-115.39,126.44-117.093,126.44-119.195z"/>
			<path fill="#ffffff" d="M145.463-128.533c0,1.336-1.084,2.42-2.422,2.42c-1.336,0-2.42-1.084-2.42-2.42
				c0-1.338,1.084-2.422,2.42-2.422C144.379-130.955,145.463-129.871,145.463-128.533z"/>
			<path fill="#ffffff" d="M229.163-147.037c-3.191,4.68,1.039,10.721-1.383,15.217c-2.422,4.498-6.744,5.016-9.857,2.596
				c-3.635-2.828-3.41-6.643-8.301-8.82c-5.529-2.465-17.984,2.248-19.715-7.264c-0.875-4.811,2.375-8.566,7.264-9.684
				c6.053-1.383,9.352-0.18,15.391-3.113c6.053-2.939,11.242-8.993,22.137-12.105c10.406-2.975,16.072,1.557,16.602,5.879
				C252.336-155.857,234.172-154.382,229.163-147.037z M226.915-154.474c0-1.24-1.006-2.248-2.248-2.248
				c-1.24,0-2.248,1.008-2.248,2.248c0,1.242,1.008,2.248,2.248,2.248C225.909-152.226,226.915-153.232,226.915-154.474z"/>
			<path fill="#ffffff" d="M256.129-107.857c0,17.166-14.5,25.5-27,22.832c-10.264-2.189-12.834-17.332-16.668-26.166
				c-3.713-8.557-8.832-22.5-20.166-22.5c-11.197,0-12.832,14.5-23.666,14.5c-11,0-24.5-15.666-24.5-39.666
				c0-14.667,9.799-31.455,20.834-30.667c11.666,0.833,4.5,19.667,15.332,19.667c9.5,0,7.857-16.259,9.168-23.334
				c1.666-9,6.832-14.166,18.498-13.166c14.443,1.237,22.334,13.5,18.871,23.344c-4.029,11.451-23.869,17.322-21.537,30.49
				c1.346,7.592,13,11.998,26,16.166C245.825-131.701,256.129-125.025,256.129-107.857z M211.178-183.7
				c0,1.815,1.471,3.286,3.285,3.286s3.287-1.471,3.287-3.286s-1.473-3.286-3.287-3.286S211.178-185.515,211.178-183.7z
				 M164.485-158.796c0-0.955-0.773-1.73-1.729-1.73s-1.73,0.775-1.73,1.73s0.775,1.729,1.73,1.729S164.485-157.841,164.485-158.796
				z M181.952-148.076c0-2.102-1.703-3.805-3.805-3.805c-2.1,0-3.805,1.703-3.805,3.805s1.705,3.805,3.805,3.805
				C180.249-144.271,181.952-145.974,181.952-148.076z M201.84-163.639c0-0.859-0.697-1.556-1.557-1.556s-1.557,0.696-1.557,1.556
				s0.697,1.556,1.557,1.556S201.84-162.78,201.84-163.639z M231.483-108.945c0-1.752-1.42-3.174-3.174-3.174
				c-1.752,0-3.174,1.422-3.174,3.174c0,1.754,1.422,3.174,3.174,3.174C230.063-105.771,231.483-107.191,231.483-108.945z"/>
			<path fill="#ffffff" d="M223.495-192.363c-7.871,2.737-19.439-15.297-17.67-27.019c1.24-8.228,7.123-13.189,13.088-14.217
				c7.525-1.297,12.898,2.601,13.299,7.243c0.547,6.309-3.633,7.518-4.223,14.958C227.426-204.262,231.68-195.211,223.495-192.363z
				 M219.706-219.871c0-1.434-1.162-2.595-2.594-2.595c-1.434,0-2.594,1.161-2.594,2.595c0,1.433,1.16,2.594,2.594,2.594
				C218.543-217.277,219.706-218.438,219.706-219.871z"/>
			<path fill="#ffffff" d="M119.351-214.828c0,1.433-1.162,2.594-2.594,2.594c-1.434,0-2.594-1.161-2.594-2.594
				s1.16-2.594,2.594-2.594C118.188-217.421,119.351-216.26,119.351-214.828z"/>
			<path fill="#ffffff" d="M253.348-128.091c0-8.41-5.078-15.227-11.34-15.227s-11.34,6.816-11.34,15.227
				c0,8.408,5.078,12.441,11.34,12.441S253.348-119.683,253.348-128.091z"/>
			<path fill="#ffffff" d="M184.573-222.551c0.74,8.101,12.672,7.017,17.904,14.214c10.52,14.475-1.219,46.365-21.631,46.365
				c-11.74,0-24.217-9.719-24.217-29.219c0-15.834,10.166-21.5,8.25-42.166c-1.006-10.834-12.5-20.343-12.5-34.75
				c0-5.922,3.586-13.447,11.553-13.447c7.055,0,10.822,5.953,10.822,12.9c0,6.798-5.381,15.74,1.375,19.047
				c5.242,2.565,13.211-4.77,19.5-6.75c5.191-1.636,12.389,0.225,14.75,8.5c2.531,8.876-3.252,14.745-11.592,16.693
				C192.469-229.687,183.985-228.993,184.573-222.551z M168.588-253.11c0-1.815-1.471-3.287-3.285-3.287s-3.287,1.472-3.287,3.287
				c0,1.814,1.473,3.285,3.287,3.285S168.588-251.295,168.588-253.11z M194.573-243.415c1.285,0,2.328-1.043,2.328-2.33
				c0-1.286-1.043-2.328-2.328-2.328c-1.287,0-2.33,1.042-2.33,2.328C192.243-244.458,193.286-243.415,194.573-243.415z
				 M174.588-183.743c0-1.815-1.471-3.287-3.287-3.287c-1.814,0-3.285,1.472-3.285,3.287c0,1.814,1.471,3.285,3.285,3.285
				C173.118-180.458,174.588-181.928,174.588-183.743z"/>
			<path fill="#ffffff" d="M166.907-196.669c-11.76-1.384-19.369,0.346-22.654,3.113c-3.02,2.543-4.955,5.405-2.248,11.932
				c2.939,7.091,1.533,14.732-5.535,15.91c-6.225,1.037-10.895-4.842-11.24-12.278c-0.24-5.183-1.902-8.301-5.533-7.608
				c-3.633,0.691-4.629,5.9-3.633,11.759c1.385,8.128,5.535,11.76,6.227,20.233c0.494,6.055-2.939,13.662-12.451,15.045
				c-9.301,1.354-15.91-4.322-16.602-10.549c-0.732-6.588,3.631-10.895,3.111-17.639c-0.518-6.745-4.012-10.172-5.879-17.294
				c-2.768-10.549,1.211-19.022,7.781-22.654c14.746-8.148,22.832,3.642,35.97,1.556c10.896-1.729,23.348-18.157,33.031-19.541
				c8.227-1.175,13.834,4.669,15.045,14.008S177.557-195.416,166.907-196.669z M124.711-196.151c0-2.292-1.859-4.15-4.15-4.15
				c-2.293,0-4.15,1.858-4.15,4.15s1.857,4.15,4.15,4.15C122.853-192,124.711-193.859,124.711-196.151z M174.17-211.542
				c0-0.955-0.775-1.729-1.73-1.729s-1.729,0.774-1.729,1.729s0.773,1.729,1.729,1.729S174.17-210.586,174.17-211.542z"/>
			<path fill="#ffffff" d="M230.202-174.361c0,0.764-0.619,1.384-1.385,1.384c-0.764,0-1.383-0.62-1.383-1.384
				s0.619-1.384,1.383-1.384C229.583-175.745,230.202-175.125,230.202-174.361z"/>
			<path fill="#ffffff" d="M235.735-212.752c0,1.242-1.006,2.249-2.248,2.249s-2.25-1.007-2.25-2.249s1.008-2.249,2.25-2.249
				S235.735-213.995,235.735-212.752z"/>
			<path fill="#ffffff" d="M152.208-189.58c0,0.668-0.543,1.211-1.211,1.211s-1.211-0.543-1.211-1.211s0.543-1.211,1.211-1.211
				S152.208-190.248,152.208-189.58z"/>
			<path fill="#ffffff" d="M148.575-121.097c0,0.764-0.619,1.385-1.383,1.385s-1.383-0.621-1.383-1.385s0.619-1.383,1.383-1.383
				S148.575-121.861,148.575-121.097z"/>
			<path fill="#ffffff" d="M233.141-143.06c0,0.668-0.543,1.211-1.211,1.211s-1.209-0.543-1.209-1.211s0.541-1.209,1.209-1.209
				S233.141-143.728,233.141-143.06z"/>
			<path fill="#ffffff" d="M195.852-125.134c0,1.881-1.527,3.408-3.408,3.408c-1.883,0-3.408-1.527-3.408-3.408
				c0-1.883,1.525-3.408,3.408-3.408C194.325-128.542,195.852-127.017,195.852-125.134z"/>
			<path fill="#ffffff" d="M200.833-85.283c0,1.158-0.939,2.096-2.098,2.096s-2.096-0.938-2.096-2.096s0.938-2.098,2.096-2.098
				S200.833-86.441,200.833-85.283z"/>
			<path fill="#ffffff" d="M162.03-91.576c0,0.869-0.703,1.572-1.572,1.572s-1.574-0.703-1.574-1.572s0.705-1.574,1.574-1.574
				S162.03-92.445,162.03-91.576z"/>
			<path fill="#ffffff" d="M235.702-205.624c0,1.447-1.174,2.621-2.621,2.621s-2.621-1.174-2.621-2.621s1.174-2.621,2.621-2.621
				S235.702-207.071,235.702-205.624z"/>
			<path fill="#ffffff" d="M225.477-170.754c0,1.303-1.057,2.359-2.359,2.359s-2.359-1.057-2.359-2.359s1.057-2.359,2.359-2.359
				S225.477-172.057,225.477-170.754z"/>
			<path fill="#ffffff" d="M127.686-164.2c0,1.448-1.174,2.622-2.623,2.622c-1.447,0-2.621-1.174-2.621-2.622
				s1.174-2.622,2.621-2.622C126.512-166.822,127.686-165.648,127.686-164.2z"/>
			<path fill="#ffffff" d="M122.704-171.279c0,0.724-0.586,1.311-1.311,1.311c-0.723,0-1.311-0.587-1.311-1.311
				s0.588-1.311,1.311-1.311C122.118-172.589,122.704-172.002,122.704-171.279z"/>
			<path fill="#ffffff" d="M186.938-119.367c0,0.869-0.705,1.572-1.574,1.572s-1.572-0.703-1.572-1.572s0.703-1.574,1.572-1.574
				S186.938-120.236,186.938-119.367z"/>
		</g>
		<g>
			<path fill="#ffffff" d="M85.033-147.037c-3.191,4.68,1.039,10.721-1.383,15.217c-2.422,4.498-6.744,5.016-9.857,2.596
				c-3.635-2.828-3.41-6.643-8.301-8.82c-5.529-2.465-17.984,2.248-19.715-7.264c-0.875-4.811,2.375-8.566,7.264-9.684
				c6.053-1.383,9.352-0.18,15.391-3.113c6.053-2.939,11.242-8.993,22.137-12.105c10.406-2.975,16.072,1.557,16.602,5.879
				C108.207-155.857,90.043-154.382,85.033-147.037z M82.785-154.474c0-1.24-1.006-2.248-2.248-2.248
				c-1.24,0-2.248,1.008-2.248,2.248c0,1.242,1.008,2.248,2.248,2.248C81.779-152.226,82.785-153.232,82.785-154.474z"/>
			<path fill="#ffffff" d="M112-107.857c0,17.166-14.5,25.5-27,22.832c-10.264-2.189-12.834-17.332-16.668-26.166
				c-3.713-8.557-8.832-22.5-20.166-22.5c-11.197,0-12.832,14.5-23.666,14.5c-11,0-24.5-15.666-24.5-39.666
				c0-14.667,9.799-31.455,20.834-30.667c11.666,0.833,4.5,19.667,15.332,19.667c9.5,0,7.857-16.259,9.168-23.334
				c1.666-9,6.832-14.166,18.498-13.166c14.443,1.237,22.334,13.5,18.871,23.344c-4.029,11.451-23.869,17.322-21.537,30.49
				c1.346,7.592,13,11.998,26,16.166C101.695-131.701,112-125.025,112-107.857z M67.049-183.7c0,1.815,1.471,3.286,3.285,3.286
				s3.287-1.471,3.287-3.286s-1.473-3.286-3.287-3.286S67.049-185.515,67.049-183.7z M20.355-158.796c0-0.955-0.773-1.73-1.729-1.73
				s-1.73,0.775-1.73,1.73s0.775,1.729,1.73,1.729S20.355-157.841,20.355-158.796z M37.822-148.076c0-2.102-1.703-3.805-3.805-3.805
				c-2.1,0-3.805,1.703-3.805,3.805s1.705,3.805,3.805,3.805C36.119-144.271,37.822-145.974,37.822-148.076z M57.711-163.639
				c0-0.859-0.697-1.556-1.557-1.556s-1.557,0.696-1.557,1.556s0.697,1.556,1.557,1.556S57.711-162.78,57.711-163.639z
				 M87.354-108.945c0-1.752-1.42-3.174-3.174-3.174c-1.752,0-3.174,1.422-3.174,3.174c0,1.754,1.422,3.174,3.174,3.174
				C85.934-105.771,87.354-107.191,87.354-108.945z"/>
			<path fill="#ffffff" d="M109.219-128.091c0-8.41-5.078-15.227-11.34-15.227s-11.34,6.816-11.34,15.227
				c0,8.408,5.078,12.441,11.34,12.441S109.219-119.683,109.219-128.091z"/>
		</g>
	</g>
</pattern>
<g>
	<path fill="#ffffff" d="M156.593,315.924c-12.052-8.97-20.248-20.52-24.596-34.651l32.069-14.404
		c2.352,8.52,6.476,15.219,12.366,20.111c5.886,4.893,13.087,7.339,21.606,7.339c8.875,0,16.35-2.807,22.421-8.427
		c6.068-5.612,9.104-12.589,9.104-20.925c0-6.158-1.495-11.145-4.484-14.949c-2.989-3.804-6.794-6.837-11.415-9.104
		c-4.62-2.264-12.549-5.572-23.78-9.921c-18.12-6.884-31.166-15.083-39.136-24.595c-7.975-9.512-11.958-21.696-11.958-36.554
		c0-10.328,2.536-19.704,7.61-28.128c5.07-8.426,12.001-15.038,20.791-19.84c8.786-4.799,18.523-7.202,29.217-7.202
		c13.223,0,24.957,3.626,35.194,10.871c10.234,7.249,17.258,16.672,21.063,28.265l-31.797,14.676
		c-1.453-5.797-4.349-10.37-8.697-13.726c-4.349-3.35-9.606-5.027-15.763-5.027c-6.523,0-11.916,1.902-16.171,5.707
		c-4.26,3.805-6.387,8.607-6.387,14.404c0,6.887,1.944,12.276,5.843,16.17c3.894,3.899,11.55,8.019,22.965,12.367
		c0.904,0.543,1.855,0.952,2.854,1.223c0.994,0.272,1.854,0.59,2.582,0.952c11.232,4.348,20.655,8.653,28.265,12.909
		c7.61,4.259,14.268,10.599,19.975,19.024c5.708,8.426,8.561,19.254,8.561,32.479c0,11.778-2.946,22.603-8.832,32.477
		c-5.89,9.878-13.955,17.666-24.188,23.373c-10.238,5.708-21.517,8.561-33.836,8.561
		C182.455,329.377,168.64,324.894,156.593,315.924z"/>
	<path fill="#ffffff" d="M296.147,117.391h78c11.776,0,22.735,2.947,32.885,8.833c10.146,5.889,18.163,13.86,24.053,23.916
		c5.886,10.056,8.833,21.062,8.833,33.02c0,11.959-2.948,23.012-8.833,33.158c-5.89,10.15-13.861,18.166-23.917,24.051
		c-10.056,5.89-21.063,8.834-33.021,8.834h-42.668v77.456h-35.332V117.391z M374.147,213.872c8.514,0,15.716-2.99,21.606-8.969
		c5.885-5.979,8.833-13.224,8.833-21.743c0-8.514-2.947-15.716-8.833-21.606c-5.89-5.886-13.093-8.833-21.606-8.833h-42.668v61.15
		H374.147z"/>
	<path fill="#ffffff" d="M551.345,291.327h-82.077l-14.132,35.332h-39.952l95.123-217.422l95.121,217.422h-39.951L551.345,291.327z
		 M539.387,261.433l-29.08-72.292l-29.081,72.292H539.387z"/>
	<path fill="#ffffff" d="M733.979,326.659l-42.94-77.456h-31.254v77.456h-35.332V117.391h78.002c11.773,0,22.735,2.947,32.884,8.833
		c10.145,5.889,18.162,13.86,24.053,23.916c5.886,10.056,8.832,21.062,8.832,33.02c0,13.772-3.805,26.227-11.415,37.37
		c-7.608,11.142-17.575,19.16-29.896,24.053l47.834,82.076H733.979z M659.785,213.872h42.67c8.514,0,15.715-2.99,21.605-8.969
		c5.885-5.979,8.832-13.224,8.832-21.743c0-8.514-2.947-15.716-8.832-21.606c-5.891-5.886-13.092-8.833-21.605-8.833h-42.67V213.872
		z"/>
	<path fill="#ffffff" d="M835.351,152.722h-53.813v-35.331h142.685v35.331h-53.541v173.938h-35.331V152.722z"/>
	<path fill="#ffffff" d="M1039.999,291.327h-82.077l-14.133,35.332h-39.95l95.122-217.422l95.121,217.422h-39.951L1039.999,291.327z
		 M1028.039,261.433l-29.078-72.292l-29.08,72.292H1028.039z"/>
	<path fill="#ffffff" d="M1148.438,198.108v128.551h-35.331V109.237l125.832,137.248V117.391h35.331v217.965L1148.438,198.108z"/>
</g>
<g>
	<g>
		<path fill="#ffffff" d="M84.743,53.261c-0.159,1.979-0.275,3.434-0.39,4.89c1.542-0.25,3.365-0.058,4.575-0.83
			c4.839-3.08,9.473-6.484,14.219-9.714c1.254-0.854,2.638-1.514,4.115-2.348c0,77.317,0,154.206,0,231.844
			c-2.214-0.885-4.051-1.128-5.175-2.154c-4.339-3.954-8.546-8.068-12.562-12.348c-0.76-0.81-0.773-2.717-0.53-4.004
			c1.691-8.968,3.498-17.914,5.366-26.848c0.612-2.929,0.137-4.555-3.1-5.845c-19.427-7.747-38.707-15.864-58.088-23.728
			c-5.417-2.198-7.759-0.403-7.013,5.326c1.229,9.439,2.654,18.853,4.167,28.25c0.601,3.733,3.943,4.547,6.922,5.415
			c6.597,1.924,13.325,3.436,19.834,5.608c8.917,2.976,13.589,10.36,14.121,19.742c0.784,13.809,2.003,27.595,3.22,41.375
			c2.595,29.396,5.309,58.78,7.967,88.173c0.045,0.5,0.006,1.009,0.006,2.673c-3.2-1.531-6.416-2.243-8.458-4.188
			c-9.083-8.651-18.326-17.225-26.533-26.675c-5.999-6.907-10.518-15.108-15.617-22.783c-8.506-12.804-14.549-26.73-18.363-41.589
			c-1.218-4.75-2.149-9.647-2.498-14.528c-1.188-16.653-1.595-33.373-3.147-49.989c-2.947-31.569-1.207-63.182-1.536-94.772
			c-0.038-3.667,1.292-7.444,2.474-11.01c5.101-15.403,11.26-30.427,21.076-43.434c9.303-12.326,20.913-22.196,35.431-28.21
			C71.797,58.839,78.32,55.997,84.743,53.261z"/>
	</g>
	<g>
		<pattern  id="SVGID_1_" xlink:href="#Alyssa" patternTransform="matrix(1.764 0 0 1.764 5538.8364 5231.1401)">
		</pattern>
		<path fill="url(#SVGID_1_)" d="M84.743,53.261c-0.159,1.979-0.275,3.434-0.39,4.89c1.542-0.25,3.365-0.058,4.575-0.83
			c4.839-3.08,9.473-6.484,14.219-9.714c1.254-0.854,2.638-1.514,4.115-2.348c0,77.317,0,154.206,0,231.844
			c-2.214-0.885-4.051-1.128-5.175-2.154c-4.339-3.954-8.546-8.068-12.562-12.348c-0.76-0.81-0.773-2.717-0.53-4.004
			c1.691-8.968,3.498-17.914,5.366-26.848c0.612-2.929,0.137-4.555-3.1-5.845c-19.427-7.747-38.707-15.864-58.088-23.728
			c-5.417-2.198-7.759-0.403-7.013,5.326c1.229,9.439,2.654,18.853,4.167,28.25c0.601,3.733,3.943,4.547,6.922,5.415
			c6.597,1.924,13.325,3.436,19.834,5.608c8.917,2.976,13.589,10.36,14.121,19.742c0.784,13.809,2.003,27.595,3.22,41.375
			c2.595,29.396,5.309,58.78,7.967,88.173c0.045,0.5,0.006,1.009,0.006,2.673c-3.2-1.531-6.416-2.243-8.458-4.188
			c-9.083-8.651-18.326-17.225-26.533-26.675c-5.999-6.907-10.518-15.108-15.617-22.783c-8.506-12.804-14.549-26.73-18.363-41.589
			c-1.218-4.75-2.149-9.647-2.498-14.528c-1.188-16.653-1.595-33.373-3.147-49.989c-2.947-31.569-1.207-63.182-1.536-94.772
			c-0.038-3.667,1.292-7.444,2.474-11.01c5.101-15.403,11.26-30.427,21.076-43.434c9.303-12.326,20.913-22.196,35.431-28.21
			C71.797,58.839,78.32,55.997,84.743,53.261z"/>
	</g>
	<g>
		<path fill-rule="evenodd" clip-rule="evenodd" fill="#ffffff" d="M84.743,53.261c-0.159,1.979-0.275,3.434-0.39,4.89
			c1.542-0.25,3.365-0.058,4.575-0.83c4.839-3.08,9.473-6.484,14.219-9.714c1.254-0.854,2.638-1.514,4.115-2.348
			c0,77.317,0,154.206,0,231.844c-2.214-0.885-4.051-1.128-5.175-2.154c-4.339-3.954-8.546-8.068-12.562-12.348
			c-0.76-0.81-0.773-2.717-0.53-4.004c1.691-8.968,3.498-17.914,5.366-26.848c0.612-2.929,0.137-4.555-3.1-5.845
			c-19.427-7.747-38.707-15.864-58.088-23.728c-5.417-2.198-7.759-0.403-7.013,5.326c1.229,9.439,2.654,18.853,4.167,28.25
			c0.601,3.733,3.943,4.547,6.922,5.415c6.597,1.924,13.325,3.436,19.834,5.608c8.917,2.976,13.589,10.36,14.121,19.742
			c0.784,13.809,2.003,27.595,3.22,41.375c2.595,29.396,5.309,58.78,7.967,88.173c0.045,0.5,0.006,1.009,0.006,2.673
			c-3.2-1.531-6.416-2.243-8.458-4.188c-9.083-8.651-18.326-17.225-26.533-26.675c-5.999-6.907-10.518-15.108-15.617-22.783
			c-8.506-12.804-14.549-26.73-18.363-41.589c-1.218-4.75-2.149-9.647-2.498-14.528c-1.188-16.653-1.595-33.373-3.147-49.989
			c-2.947-31.569-1.207-63.182-1.536-94.772c-0.038-3.667,1.292-7.444,2.474-11.01c5.101-15.403,11.26-30.427,21.076-43.434
			c9.303-12.326,20.913-22.196,35.431-28.21C71.797,58.839,78.32,55.997,84.743,53.261z"/>
	</g>
</g>
<g>
	<g>
		<path fill="none" stroke="#AF4141" stroke-miterlimit="10" d="M35.545,110.868"/>
	</g>
</g>
</svg>
